<svg version="1.1" xmlns="http://www.w3.org/2000/svg" xmlns:xlink="http://www.w3.org/1999/xlink"
    x="0px" y="0px" viewBox="0 0 256 256" enable-background="new 0 0 256 256" xml:space="preserve">
<g> <path fill="#d92f16" d="M10,92.4l58.7-59v118L10,92.4z M68.7,151.4l59.3-59l59,59H68.7z M128,92.4l-59.3-59h118L128,92.4z  M187,33.4l59,59l-59,59V33.4z"/> <path fill="#231815" d="M73.7,197.3H48.1v18.5c0,2.4,2,4.4,4.7,4.4h2.7v1H33.6v-1h2.7c2.7,0,4.7-2,4.7-4.4V174c0-2-2-4.4-4.7-4.4 h-2.7v-1h21.6v1h-2.7c-2.7,0-4.7,2-4.7,4.4v20.2h25.6V174c0-2-2-4.4-4.7-4.4H66v-1h21.6v1h-2.7c-2.7,0-4.7,2-4.7,4.4v41.8 c0,2.4,2.4,4.4,4.7,4.4h2.7v1H66v-1h2.7c2.7,0,4.7-2,4.7-4.4v-18.5H73.7z M125.3,207.4c0,3-1.7,7.8-4.4,10.1s-6.1,4.4-11.1,4.4 c-5.4,0-10.5-3-12.1-3.7c-1-0.3-2.4-0.3-3.4,0c-1,0.7-1.7,1.7-1.7,3.4h-0.7v-18.2h0.7c0.7,5.7,3.4,8.8,5.1,10.8 c2.7,3,7.8,4.7,12.5,4c3.7-0.7,8.1-4.7,7.8-10.1c0-2-0.7-4.7-4.4-7.1c-2.4-1.7-6.1-3.7-9.1-6.1c-4-2.7-7.8-5.7-9.1-7.1 c-1.3-1.7-3-3.7-3-7.4c0-3,1-6.7,3.7-9.1c2.7-2.4,6.1-4,10.8-4c5.1,0,8.8,2.7,9.8,3c1.3,0.7,2.7,0.7,3.4,0c0.7-0.3,1.3-1,1.7-2.7 h0.7v17.2h-0.7c-0.7-5.7-3.4-9.8-5.1-11.5c-1.7-1.7-5.1-3.7-10.1-2.7c-4.7,1-7.1,3-7.4,6.7c-0.3,3,1.3,4.7,2.4,5.7 c1.7,2,13.8,8.8,18.9,13.5C122.9,200,125,202.7,125.3,207.4L125.3,207.4z M142.8,218.2c3.7,1,10.5,2,15.5-1.3 c5.7-4,7.1-14.2-1-19.6c-3.4-2-11.5-2-14.5-1.3V218.2z M142.8,192.9c2.7,0.7,10.1,1,13.1-1c4.7-3,6.4-7.8,5.4-11.8 c-0.7-2.4-1.7-4.7-4-6.4c-4.4-3-11.1-2.7-14.5-1.7V192.9z M159.7,194.6c9.4,3,12.1,9.8,10.5,16.5c-2,8.1-11.1,9.4-14.2,10.1h-27.6 v-1h3c2,0,4.4-1.7,4.4-4v-41.8c0-2.7-2.4-4.4-4.4-4.4h-3v-1h18.9c4.4,0,7.1,0.3,8.4,0.7c2.7,0.7,10.5,2.7,12.1,10.1 C169.5,185.5,166.4,192.6,159.7,194.6z M219.7,169.6l0.7,17.9h-1c-0.7-4.4-2.4-7.8-4.4-9.8c-0.7-0.7-1.7-1.7-3.4-2.7 c-2.7-1.7-7.1-3.4-12.1-2.4c-7.4,1.3-11.5,6.4-13.1,11.1c-2.4,5.7-3.7,15.8,0,24.3c3.4,6.7,9.4,9.4,14.5,10.5 c4,0.7,13.2,0.3,20.2-9.1l1,0.7c-5.4,7.4-12.8,12.5-20.9,12.5c-10.5,0-17.2-5.7-20.2-9.1c-3.4-3.7-5.7-10.5-5.7-16.5 c0-5.4,1-11.1,3-14.5c3.4-5.7,10.1-11.8,19.2-12.8c6.7-0.7,11.1,0.7,15.2,2.7c2,1,3,1,4,0.7c1-0.3,2-1.3,2-3L219.7,169.6 L219.7,169.6z"/></g>
</svg>